<svg width="28" height="28" viewBox="0 0 28 28" fill="none" xmlns="http://www.w3.org/2000/svg">
<path d="M20.5566 12.5418C20.055 12.5418 19.6583 12.1334 19.6583 11.6434C19.6583 11.2118 19.2266 10.3134 18.5033 9.53178C17.7916 8.77345 17.01 8.33011 16.3566 8.33011C15.855 8.33011 15.4583 7.92178 15.4583 7.43178C15.4583 6.94178 15.8666 6.53345 16.3566 6.53345C17.5233 6.53345 18.7483 7.16345 19.8216 8.29511C20.825 9.35678 21.4666 10.6751 21.4666 11.6318C21.4666 12.1334 21.0583 12.5418 20.5566 12.5418Z" fill="#FFF622"/>
<path d="M24.7683 12.5416C24.2666 12.5416 23.87 12.1333 23.87 11.6433C23.87 7.50159 20.4983 4.14159 16.3683 4.14159C15.8666 4.14159 15.47 3.73325 15.47 3.24325C15.47 2.75325 15.8666 2.33325 16.3566 2.33325C21.49 2.33325 25.6666 6.50992 25.6666 11.6433C25.6666 12.1333 25.2583 12.5416 24.7683 12.5416Z" fill="#FFF622"/>
<path d="M12.8916 17.4416L10.7333 19.5999C10.2783 20.0549 9.55498 20.0549 9.08831 19.6116C8.95998 19.4833 8.83165 19.3666 8.70331 19.2383C7.50165 18.0249 6.41665 16.7533 5.44831 15.4233C4.49165 14.0933 3.72165 12.7633 3.16165 11.4449C2.61331 10.1149 2.33331 8.84325 2.33331 7.62992C2.33331 6.83659 2.47331 6.07825 2.75331 5.37825C3.03331 4.66659 3.47665 4.01325 4.09498 3.42992C4.84165 2.69492 5.65831 2.33325 6.52165 2.33325C6.84831 2.33325 7.17498 2.40325 7.46665 2.54325C7.76998 2.68325 8.03831 2.89325 8.24831 3.19659L10.955 7.01159C11.165 7.30325 11.3166 7.57159 11.4216 7.82825C11.5266 8.07325 11.585 8.31825 11.585 8.53992C11.585 8.81992 11.5033 9.09992 11.34 9.36825C11.1883 9.63658 10.9666 9.91658 10.6866 10.1966L9.79998 11.1183C9.67165 11.2466 9.61331 11.3983 9.61331 11.5849C9.61331 11.6783 9.62498 11.7599 9.64831 11.8533C9.68331 11.9466 9.71831 12.0166 9.74165 12.0866C9.95165 12.4716 10.3133 12.9733 10.8266 13.5799C11.3516 14.1866 11.9116 14.8049 12.5183 15.4233C12.635 15.5399 12.7633 15.6566 12.88 15.7733C13.3466 16.2283 13.3583 16.9749 12.8916 17.4416Z" fill="#FFF622"/>
<path d="M25.6317 21.3849C25.6317 21.7115 25.5733 22.0499 25.4567 22.3766C25.4217 22.4699 25.3867 22.5632 25.34 22.6565C25.1417 23.0766 24.885 23.4732 24.5467 23.8466C23.975 24.4766 23.345 24.9316 22.6333 25.2232C22.6217 25.2232 22.61 25.2349 22.5983 25.2349C21.91 25.5149 21.1633 25.6665 20.3583 25.6665C19.1683 25.6665 17.8967 25.3866 16.555 24.8149C15.2133 24.2432 13.8717 23.4732 12.5417 22.5049C12.0867 22.1666 11.6317 21.8282 11.2 21.4665L15.015 17.6515C15.3417 17.8965 15.6333 18.0832 15.8783 18.2115C15.9367 18.2349 16.0067 18.2699 16.0883 18.3049C16.1817 18.3399 16.275 18.3515 16.38 18.3515C16.5783 18.3515 16.73 18.2816 16.8583 18.1532L17.745 17.2782C18.0367 16.9866 18.3167 16.7649 18.585 16.6249C18.8533 16.4615 19.1217 16.3799 19.4133 16.3799C19.635 16.3799 19.8683 16.4265 20.125 16.5315C20.3817 16.6365 20.65 16.7882 20.9417 16.9866L24.8033 19.7282C25.1067 19.9382 25.3167 20.1832 25.445 20.4749C25.5617 20.7665 25.6317 21.0582 25.6317 21.3849Z" fill="#FFF622"/>
</svg>
