<svg xmlns="http://www.w3.org/2000/svg" viewBox="0 0 36 35" fill="none">
    <path d="M18 34.7604C27.9411 34.7604 36 27.0346 36 17.5042C36 7.97391 27.9411 0.248047 18 0.248047C8.05887 0.248047 0 7.97391 0 17.5042C0 27.0346 8.05887 34.7604 18 34.7604Z" fill="#C13584" />
    <path d="M17.9992 9.01594C20.8829 9.01594 21.2245 9.02647 22.3633 9.07625C23.4163 9.12233 23.9882 9.291 24.3688 9.43276C24.8729 9.6206 25.2326 9.84493 25.6105 10.2072C25.9885 10.5696 26.2225 10.9145 26.4184 11.3977C26.5663 11.7626 26.7423 12.3108 26.7903 13.3203C26.8423 14.412 26.8533 14.7396 26.8533 17.504C26.8533 20.2686 26.8423 20.5961 26.7903 21.6879C26.7423 22.6973 26.5663 23.2456 26.4184 23.6104C26.2225 24.0936 25.9885 24.4386 25.6106 24.8009C25.2326 25.1632 24.8729 25.3875 24.3688 25.5753C23.9882 25.7172 23.4163 25.8859 22.3633 25.9318C21.2247 25.9816 20.8832 25.9922 17.9992 25.9922C15.1153 25.9922 14.7738 25.9816 13.6351 25.9318C12.5821 25.8859 12.0103 25.7172 11.6297 25.5753C11.1256 25.3875 10.7658 25.1632 10.3879 24.8009C10.01 24.4386 9.77591 24.0936 9.57998 23.6104C9.43211 23.2456 9.25616 22.6973 9.2081 21.6879C9.15617 20.5961 9.14519 20.2686 9.14519 17.504C9.14519 14.7396 9.15617 14.412 9.2081 13.3203C9.25616 12.3108 9.43211 11.7626 9.57998 11.3977C9.77591 10.9145 10.0099 10.5696 10.3879 10.2073C10.7658 9.84493 11.1256 9.6206 11.6297 9.43276C12.0103 9.291 12.5821 9.12233 13.6351 9.07625C14.7739 9.02647 15.1155 9.01594 17.9992 9.01594ZM17.9992 7.15039C15.0661 7.15039 14.6984 7.16231 13.5464 7.21269C12.3969 7.26295 11.6117 7.438 10.9249 7.69392C10.2146 7.95852 9.61229 8.31254 9.0119 8.88816C8.41147 9.46374 8.04219 10.0411 7.76623 10.722C7.49923 11.3806 7.31664 12.1333 7.26421 13.2353C7.21166 14.3396 7.19922 14.6922 7.19922 17.504C7.19922 20.316 7.21166 20.6685 7.26421 21.7728C7.31664 22.8749 7.49923 23.6275 7.76623 24.2861C8.04219 24.967 8.41147 25.5444 9.0119 26.12C9.61229 26.6956 10.2146 27.0496 10.9249 27.3142C11.6117 27.5702 12.3969 27.7452 13.5464 27.7954C14.6984 27.8458 15.0661 27.8577 17.9992 27.8577C20.9323 27.8577 21.3001 27.8458 22.4521 27.7954C23.6016 27.7452 24.3867 27.5702 25.0737 27.3142C25.7839 27.0496 26.3861 26.6956 26.9865 26.12C27.587 25.5444 27.9563 24.967 28.2323 24.2861C28.4992 23.6275 28.6818 22.8749 28.7342 21.7728C28.7868 20.6685 28.7992 20.316 28.7992 17.504C28.7992 14.6922 28.7868 14.3396 28.7342 13.2353C28.6818 12.1333 28.4992 11.3806 28.2323 10.722C27.9563 10.0411 27.587 9.46374 26.9865 8.88816C26.3861 8.31254 25.7839 7.95852 25.0737 7.69392C24.3867 7.438 23.6016 7.26295 22.4521 7.21269C21.3001 7.16231 20.9323 7.15039 17.9992 7.15039Z" fill="white" />
    <path d="M18.005 12.1924C14.942 12.1924 12.459 14.5728 12.459 17.5091C12.459 20.4455 14.942 22.8259 18.005 22.8259C21.0679 22.8259 23.5509 20.4455 23.5509 17.5091C23.5509 14.5728 21.0679 12.1924 18.005 12.1924ZM18.005 20.9603C16.0167 20.9603 14.405 19.4152 14.405 17.5091C14.405 15.6031 16.0167 14.058 18.005 14.058C19.9932 14.058 21.605 15.6031 21.605 17.5091C21.605 19.4152 19.9932 20.9603 18.005 20.9603Z" fill="white" />
    <path d="M25.0666 11.9789C25.0666 12.665 24.4864 13.2212 23.7706 13.2212C23.0548 13.2212 22.4746 12.665 22.4746 11.9789C22.4746 11.2927 23.0548 10.7363 23.7706 10.7363C24.4864 10.7363 25.0666 11.2927 25.0666 11.9789Z" fill="white" />
</svg>