<svg width="31" height="51" viewBox="0 0 31 51" fill="none" xmlns="http://www.w3.org/2000/svg">
<path d="M15.5 24.5445C10.0331 24.5445 5.60173 20.1169 5.60173 14.6557C5.60173 9.19397 10.0331 4.76636 15.5 4.76636C20.9668 4.76636 25.3988 9.19397 25.3988 14.6557C25.3988 20.1169 20.9668 24.5445 15.5 24.5445ZM28.884 7.66961C24.5614 0.287517 15.0673 -2.19701 7.67701 2.12118C0.287329 6.43937 -2.19909 15.9239 2.12352 23.306L15.5038 46.1588L28.884 23.306C31.6013 18.6381 31.8075 12.6633 28.884 7.66961Z" fill="black"/>
<path d="M15.5 7.73347C11.679 7.73347 8.57081 10.8385 8.57081 14.6557C8.57081 18.4723 11.679 21.5773 15.5 21.5773C19.3211 21.5773 22.4292 18.4723 22.4292 14.6557C22.4292 10.8385 19.3211 7.73347 15.5 7.73347ZM15.5 23.1858C10.7916 23.1858 6.96106 19.3591 6.96106 14.6557C6.96106 9.9517 10.7916 6.12561 15.5 6.12561C20.2085 6.12561 24.039 9.9517 24.039 14.6557C24.039 19.3591 20.2085 23.1858 15.5 23.1858Z" fill="black"/>
<path d="M15.5 50.1917C12.4658 50.1917 9.60181 49.7198 7.43418 48.8634C5.03062 47.9134 3.7074 46.5579 3.7074 45.0449C3.7074 42.8823 6.34625 41.1113 10.7675 40.3074L11.056 41.8893C7.28807 42.5749 5.31715 43.9962 5.31715 45.0449C5.31715 45.8292 6.32981 46.6977 8.02622 47.3681C10.0098 48.1518 12.6638 48.5838 15.5 48.5838C18.3362 48.5838 20.9903 48.1518 22.9738 47.3681C24.6702 46.6977 25.6829 45.8292 25.6829 45.0449C25.6829 43.9962 23.712 42.5749 19.9441 41.8893L20.2325 40.3074C24.6538 41.1113 27.2926 42.8823 27.2926 45.0449C27.2926 46.5579 25.9694 47.9134 23.5659 48.8634C21.3982 49.7198 18.5336 50.1917 15.5 50.1917Z" fill="#231F20"/>
</svg>
