<svg width="159" height="43" viewBox="0 0 159 43" fill="none" xmlns="http://www.w3.org/2000/svg">
<g clip-path="url(#clip0_65_37)">
<path d="M55.9852 9.84725H53.4266V18.9721H51.2092V9.84725H48.6506V8.00586H55.9852V9.84725Z" fill="white"/>
<path d="M64.4675 18.9721L63.4615 16.6704H58.8728L57.8667 18.9721H55.4615L60.357 8.00586H62.0968L66.856 18.9721H64.4675ZM59.5723 14.9276H62.8135L61.1926 10.9817L59.5723 14.9276Z" fill="white"/>
<path d="M68.1835 8.00586H71.4756C72.7264 8.00586 73.693 8.27985 74.3753 8.82788C75.1257 9.44173 75.5015 10.2637 75.5015 11.2941C75.5015 12.434 75.0577 13.2944 74.1706 13.8754C73.8297 14.1055 73.4145 14.2645 72.9254 14.3522L76.4738 18.9721H73.7102L70.6743 14.5659H70.4009V18.9721H68.1835V8.00586ZM70.4009 9.74863V13.0533H71.0323C71.2142 13.0533 71.3904 13.0423 71.5608 13.0204C71.7427 12.9875 71.976 12.9272 72.2603 12.8396C72.5445 12.7409 72.7722 12.571 72.9426 12.3299C73.1245 12.0778 73.2154 11.7654 73.2154 11.3927C73.2154 11.02 73.1302 10.7132 72.9598 10.472C72.7893 10.2199 72.5617 10.05 72.2774 9.96236C71.9932 9.86368 71.7656 9.80343 71.5951 9.78148C71.4247 9.75954 71.2485 9.74863 71.0661 9.74863H70.4009Z" fill="white"/>
<path d="M83.7455 14.9438V13.1024H88.965V13.234C88.965 15.1959 88.4079 16.7085 87.2932 17.7717C86.2929 18.7363 84.9448 19.2185 83.2507 19.2185C81.5223 19.2185 80.1462 18.7253 79.123 17.7388C77.9969 16.6537 77.4341 15.2453 77.4341 13.5135C77.4341 11.8693 77.9912 10.5102 79.1059 9.43603C80.2429 8.31803 81.7385 7.75903 83.5916 7.75903C84.5925 7.75903 85.4682 7.95088 86.2185 8.33446C87.0942 8.76198 87.8051 9.43058 88.3507 10.3403L86.4233 11.3432C86.1162 10.7733 85.6729 10.3403 85.093 10.0444C84.6154 9.81421 84.0806 9.6991 83.4898 9.6991C82.4208 9.6991 81.5452 10.0224 80.8629 10.6691C80.101 11.3816 79.7201 12.3461 79.7201 13.5628C79.7201 14.7137 80.0953 15.6398 80.8457 16.3413C81.5166 16.9661 82.3579 17.2785 83.3703 17.2785C84.2574 17.2785 85.002 17.0593 85.6048 16.6208C86.1505 16.2153 86.5085 15.6563 86.6795 14.9438H83.7455Z" fill="white"/>
<path d="M97.3174 8.00586V9.84725H93.2234V12.297H97.1464V14.1384H93.2234V17.1307H97.3174V18.9721H91.006V8.00586H97.3174Z" fill="white"/>
<path d="M105.975 9.84725H103.417V18.9721H101.2V9.84725H98.6407V8.00586H105.975V9.84725Z" fill="white"/>
<path d="M113.554 14.3684V13.7107H118.331C118.331 15.1575 117.944 16.3577 117.171 17.3113C116.17 18.5389 114.743 19.1527 112.889 19.1527C111.207 19.1527 109.802 18.6211 108.676 17.5579C107.562 16.4948 107.004 15.1466 107.004 13.5134C107.004 11.9021 107.573 10.5595 108.711 9.48533C109.859 8.40018 111.269 7.85767 112.941 7.85767C114.248 7.85767 115.437 8.25222 116.506 9.04143C117.029 9.43599 117.484 9.89636 117.87 10.4225L117.273 10.8828C117 10.4334 116.637 10.0279 116.181 9.66615C115.226 8.89893 114.14 8.51529 112.923 8.51529C111.468 8.51529 110.246 9.00307 109.256 9.97856C108.278 10.9541 107.789 12.1433 107.789 13.5463C107.789 14.9274 108.272 16.1002 109.239 17.0647C110.206 18.0183 111.417 18.4951 112.873 18.4951C113.771 18.4951 114.567 18.3142 115.26 17.9525C115.966 17.5799 116.488 17.1414 116.83 16.6372C117.285 15.9577 117.534 15.2013 117.58 14.3684H113.554Z" fill="white"/>
<path d="M126.424 18.9721H125.571L121.887 13.7932H121.546V18.9721H120.795V8.00586H122.432C123.468 8.00586 124.269 8.19219 124.838 8.56486C125.622 9.09095 126.014 9.87465 126.014 10.9159C126.014 11.5188 125.861 12.0613 125.554 12.5436C125.247 13.0149 124.764 13.3602 124.104 13.5794C123.672 13.7219 123.206 13.7932 122.706 13.7932L126.424 18.9721ZM121.546 8.66348V13.1355H122.637C123.445 13.1355 124.076 12.9382 124.531 12.5436C124.997 12.149 125.23 11.601 125.23 10.8995C125.23 9.97879 124.895 9.34305 124.224 8.99232C123.826 8.77308 123.246 8.66348 122.484 8.66348H121.546Z" fill="white"/>
<path d="M129.682 9.50175C130.82 8.4057 132.218 7.85767 133.879 7.85767C135.539 7.85767 136.937 8.4057 138.075 9.50175C139.212 10.5978 139.781 11.9351 139.781 13.5134C139.781 15.0918 139.212 16.429 138.075 17.5251C136.937 18.6101 135.539 19.1527 133.879 19.1527C132.207 19.1527 130.803 18.6101 129.666 17.5251C128.54 16.429 127.977 15.0918 127.977 13.5134C127.977 11.9351 128.545 10.5978 129.682 9.50175ZM130.229 17.0647C131.207 18.0183 132.423 18.4951 133.879 18.4951C135.334 18.4951 136.551 18.0183 137.529 17.0647C138.507 16.1002 138.996 14.9164 138.996 13.5134C138.996 12.0995 138.507 10.9157 137.529 9.96213C136.551 8.99755 135.334 8.51529 133.879 8.51529C132.423 8.51529 131.207 8.99755 130.229 9.96213C129.251 10.9157 128.762 12.0995 128.762 13.5134C128.762 14.9164 129.251 16.1002 130.229 17.0647Z" fill="white"/>
<path d="M142.233 8.00586H142.983V14.8618C142.983 15.4427 143.012 15.9085 143.069 16.2593C143.137 16.5991 143.268 16.9225 143.461 17.2294C143.757 17.6897 144.149 18.0185 144.638 18.2158C145.139 18.4022 145.628 18.4953 146.105 18.4953C146.583 18.4953 147.066 18.4022 147.555 18.2158C148.055 18.0185 148.453 17.6897 148.749 17.2294C148.942 16.9225 149.067 16.5991 149.124 16.2593C149.192 15.9085 149.226 15.4427 149.226 14.8618V8.00586H149.977V14.8618C149.977 15.5414 149.937 16.084 149.858 16.4895C149.778 16.8951 149.601 17.2896 149.329 17.6733C148.624 18.6597 147.549 19.1529 146.105 19.1529C144.661 19.1529 143.586 18.6597 142.881 17.6733C142.608 17.2896 142.432 16.8951 142.352 16.4895C142.273 16.084 142.233 15.5414 142.233 14.8618V8.00586Z" fill="white"/>
<path d="M155.262 13.7603H153.795V18.9721H153.044V8.00586H155.245C156.212 8.00586 157.007 8.25796 157.633 8.76216C158.259 9.2554 158.571 9.95685 158.571 10.8666C158.571 11.7654 158.27 12.4723 157.667 12.9875C157.065 13.5027 156.263 13.7603 155.262 13.7603ZM153.795 8.66348V13.1026H155.296C156.047 13.1026 156.649 12.9053 157.104 12.5107C157.559 12.1052 157.786 11.5626 157.786 10.8831C157.786 10.1925 157.554 9.64995 157.087 9.2554C156.632 8.86079 155.996 8.66348 155.177 8.66348H153.795Z" fill="white"/>
<path d="M55.4387 28.6078V22.1628H56.121V34.1485H55.4387V32.9483C54.8133 33.869 53.915 34.3293 52.7437 34.3293C51.7998 34.3293 50.9924 34.0169 50.3215 33.3922C49.662 32.7564 49.3322 31.8796 49.3322 30.7616C49.3322 29.6217 49.6677 28.7612 50.3386 28.1803C51.0095 27.5884 51.8112 27.2925 52.7437 27.2925C53.9036 27.2925 54.8019 27.731 55.4387 28.6078ZM52.7437 27.9173C51.9818 27.9173 51.3393 28.1639 50.8162 28.6571C50.3045 29.1503 50.0486 29.8464 50.0486 30.7451C50.0486 31.6768 50.3158 32.4057 50.8503 32.9318C51.3847 33.447 52.0273 33.7045 52.7778 33.7045C53.5169 33.7045 54.148 33.447 54.6711 32.9318C55.2056 32.4057 55.4728 31.6768 55.4728 30.7451C55.4728 29.934 55.2284 29.2599 54.7394 28.7229C54.2504 28.1858 53.5852 27.9173 52.7437 27.9173Z" fill="white"/>
<path d="M58.572 27.4408H59.2544V34.1488H58.572V27.4408ZM59.3396 25.6487C59.2258 25.7583 59.0833 25.8131 58.9129 25.8131C58.7425 25.8131 58.5943 25.7583 58.4697 25.6487C58.3558 25.5281 58.2986 25.3801 58.2986 25.2048C58.2986 25.0294 58.3558 24.8869 58.4697 24.7773C58.5943 24.6567 58.7425 24.5964 58.9129 24.5964C59.0833 24.5964 59.2258 24.6567 59.3396 24.7773C59.4643 24.8869 59.5272 25.0294 59.5272 25.2048C59.5272 25.3801 59.4643 25.5281 59.3396 25.6487Z" fill="white"/>
<path d="M67.4355 27.4407H68.1178V33.9514C68.1178 35.2119 67.8049 36.1874 67.1792 36.8779C66.5655 37.5794 65.7128 37.9301 64.6209 37.9301C63.6772 37.9301 62.8811 37.6726 62.2331 37.1574C61.5959 36.6532 61.255 35.9517 61.2093 35.053H61.9259C61.9826 35.7435 62.2554 36.2915 62.7444 36.697C63.2448 37.1026 63.8705 37.3054 64.6209 37.3054C65.1328 37.3054 65.5761 37.2068 65.9513 37.0095C66.3379 36.8122 66.6222 36.5874 66.804 36.3353C66.9859 36.0832 67.1283 35.7763 67.2307 35.4147C67.3331 35.053 67.3897 34.7735 67.4011 34.5762C67.424 34.3788 67.4355 34.1706 67.4355 33.9514V32.9978C66.776 33.8856 65.8603 34.3295 64.689 34.3295C63.7682 34.3295 62.9663 34.0172 62.284 33.3924C61.6016 32.7676 61.2608 31.9017 61.2608 30.7947C61.2608 29.7973 61.5788 28.9642 62.2159 28.2956C62.8525 27.627 63.7052 27.2927 64.7742 27.2927C65.9118 27.2927 66.7983 27.7312 67.4355 28.608V27.4407ZM66.7017 28.7395C66.2018 28.1915 65.536 27.9175 64.7061 27.9175C63.8763 27.9175 63.2105 28.2025 62.7106 28.7724C62.2216 29.3314 61.9768 30.0164 61.9768 30.8275C61.9768 31.6496 62.2216 32.3347 62.7106 32.8827C63.2105 33.4308 63.8648 33.7047 64.6718 33.7047C65.5137 33.7047 66.1903 33.4252 66.7017 32.8662C67.2135 32.3072 67.4692 31.6058 67.4692 30.7618C67.4692 29.9616 67.2135 29.2876 66.7017 28.7395Z" fill="white"/>
<path d="M70.5643 27.4408H71.2466V34.1488H70.5643V27.4408ZM71.3319 25.6487C71.2186 25.7583 71.0762 25.8131 70.9058 25.8131C70.7353 25.8131 70.5872 25.7583 70.4619 25.6487C70.3487 25.5281 70.2915 25.3801 70.2915 25.2048C70.2915 25.0294 70.3487 24.8869 70.4619 24.7773C70.5872 24.6567 70.7353 24.5964 70.9058 24.5964C71.0762 24.5964 71.2186 24.6567 71.3319 24.7773C71.4571 24.8869 71.5195 25.0294 71.5195 25.2048C71.5195 25.3801 71.4571 25.5281 71.3319 25.6487Z" fill="white"/>
<path d="M75.6424 28.0653H74.431V34.1485H73.7487V28.0653H72.9811V27.4405H73.7487V25.04H74.431V27.4405H75.6424V28.0653Z" fill="white"/>
<path d="M82.6749 28.608V27.4407H83.3572V34.1487H82.6749V32.9485C82.0492 33.8692 81.1455 34.3295 79.9627 34.3295C79.019 34.3295 78.2171 34.0062 77.5577 33.3595C76.8982 32.7128 76.5682 31.8579 76.5682 30.7947C76.5682 29.7534 76.8811 28.9094 77.5062 28.2628C78.1319 27.6161 78.9504 27.2927 79.9627 27.2927C81.1226 27.2927 82.0269 27.7312 82.6749 28.608ZM79.997 27.9175C79.2575 27.9175 78.6209 28.1751 78.0862 28.6902C77.552 29.1944 77.2849 29.8794 77.2849 30.7453C77.2849 31.5455 77.5291 32.2415 78.0181 32.8334C78.5071 33.4143 79.1723 33.7047 80.0136 33.7047C80.8441 33.7047 81.4978 33.4198 81.9754 32.8498C82.4644 32.2689 82.7092 31.5674 82.7092 30.7453C82.7092 29.8356 82.4301 29.1396 81.873 28.6573C81.3159 28.1641 80.6902 27.9175 79.997 27.9175Z" fill="white"/>
<path d="M85.8057 22.1628H86.488V34.1485H85.8057V22.1628Z" fill="white"/>
<path d="M98.5812 28.608V27.4407H99.2635V34.1487H98.5812V32.9485C97.9555 33.8692 97.0518 34.3295 95.869 34.3295C94.9253 34.3295 94.1235 34.0062 93.464 33.3595C92.8046 32.7128 92.4745 31.8579 92.4745 30.7947C92.4745 29.7534 92.7874 28.9094 93.4125 28.2628C94.0382 27.6161 94.8567 27.2927 95.869 27.2927C97.0289 27.2927 97.9332 27.7312 98.5812 28.608ZM95.9034 27.9175C95.1638 27.9175 94.5273 28.1751 93.9925 28.6902C93.4583 29.1944 93.1912 29.8794 93.1912 30.7453C93.1912 31.5455 93.4354 32.2415 93.9244 32.8334C94.4134 33.4143 95.0786 33.7047 95.9199 33.7047C96.7504 33.7047 97.4041 33.4198 97.8817 32.8498C98.3707 32.2689 98.6155 31.5674 98.6155 30.7453C98.6155 29.8356 98.3364 29.1396 97.7793 28.6573C97.2223 28.1641 96.5965 27.9175 95.9034 27.9175Z" fill="white"/>
<path d="M107.446 27.4407H108.128V33.9514C108.128 35.2119 107.815 36.1874 107.19 36.8779C106.576 37.5794 105.723 37.9301 104.631 37.9301C103.688 37.9301 102.892 37.6726 102.244 37.1574C101.606 36.6532 101.266 35.9517 101.22 35.053H101.936C101.993 35.7435 102.266 36.2915 102.755 36.697C103.255 37.1026 103.881 37.3054 104.631 37.3054C105.143 37.3054 105.587 37.2068 105.962 37.0095C106.348 36.8122 106.633 36.5874 106.815 36.3353C106.997 36.0832 107.139 35.7763 107.241 35.4147C107.344 35.053 107.4 34.7735 107.412 34.5762C107.435 34.3788 107.446 34.1706 107.446 33.9514V32.9978C106.787 33.8856 105.871 34.3295 104.7 34.3295C103.779 34.3295 102.977 34.0172 102.295 33.3924C101.612 32.7676 101.271 31.9017 101.271 30.7947C101.271 29.7973 101.589 28.9642 102.226 28.2956C102.863 27.627 103.716 27.2927 104.785 27.2927C105.922 27.2927 106.809 27.7312 107.446 28.608V27.4407ZM106.712 28.7395C106.212 28.1915 105.547 27.9175 104.717 27.9175C103.887 27.9175 103.222 28.2025 102.721 28.7724C102.232 29.3314 101.987 30.0164 101.987 30.8275C101.987 31.6496 102.232 32.3347 102.721 32.8827C103.222 33.4308 103.875 33.7047 104.682 33.7047C105.524 33.7047 106.201 33.4252 106.712 32.8662C107.224 32.3072 107.48 31.6058 107.48 30.7618C107.48 29.9616 107.224 29.2876 106.712 28.7395Z" fill="white"/>
<path d="M116.803 30.8769H110.85C110.85 31.7099 111.117 32.3895 111.652 32.9156C112.198 33.4417 112.851 33.7047 113.613 33.7047C114.159 33.7047 114.642 33.5677 115.063 33.2938C115.484 33.0087 115.808 32.6361 116.035 32.1758L116.615 32.5045C116.354 32.9869 115.973 33.4143 115.473 33.787C114.972 34.1487 114.336 34.3295 113.562 34.3295C112.505 34.3295 111.669 34.0007 111.055 33.343C110.441 32.6744 110.134 31.8359 110.134 30.8275C110.134 29.7205 110.464 28.8546 111.123 28.2298C111.794 27.6051 112.59 27.2927 113.511 27.2927C114.455 27.2927 115.239 27.627 115.865 28.2956C116.49 28.9642 116.803 29.8247 116.803 30.8769ZM110.901 30.2521H116.086C115.995 29.5726 115.711 29.0136 115.234 28.5751C114.767 28.1367 114.193 27.9175 113.511 27.9175C112.817 27.9175 112.231 28.1421 111.754 28.5915C111.276 29.03 110.992 29.5835 110.901 30.2521Z" fill="white"/>
<path d="M118.821 34.1487V27.4407H119.503V28.4929C119.969 27.6928 120.68 27.2927 121.636 27.2927C122.5 27.2927 123.142 27.6051 123.563 28.2298C123.791 28.5806 123.904 29.1451 123.904 29.9233V34.1487H123.222V29.9233C123.222 29.2985 123.131 28.8492 122.949 28.5751C122.676 28.1367 122.221 27.9175 121.585 27.9175C120.811 27.9175 120.242 28.2298 119.879 28.8546C119.629 29.2821 119.503 29.8849 119.503 30.6632V34.1487H118.821Z" fill="white"/>
<path d="M131.946 28.1477V29.019C131.286 28.2846 130.484 27.9175 129.541 27.9175C128.699 27.9175 128.005 28.197 127.459 28.756C126.914 29.304 126.641 29.9946 126.641 30.8275C126.641 31.7264 126.931 32.4333 127.511 32.9485C128.091 33.4527 128.756 33.7047 129.506 33.7047C130.428 33.7047 131.269 33.3047 132.031 32.5045V33.3924C131.303 34.0172 130.456 34.3295 129.489 34.3295C128.443 34.3295 127.584 34.0007 126.914 33.343C126.254 32.6744 125.924 31.8414 125.924 30.844C125.924 29.8247 126.254 28.9807 126.914 28.312C127.573 27.6325 128.449 27.2927 129.541 27.2927C130.438 27.2927 131.24 27.5777 131.946 28.1477Z" fill="white"/>
<path d="M134.494 37.9301L136.131 34.2637L132.822 27.4407H133.607L136.524 33.4088L139.065 27.4407H139.85L135.278 37.9301H134.494Z" fill="white"/>
<path d="M44.6115 21.5C44.6115 9.62588 34.6249 0 22.3058 0C9.98663 0 0 9.62588 0 21.5C0 33.3741 9.98663 43 22.3058 43C34.6249 43 44.6115 33.3741 44.6115 21.5Z" fill="black"/>
<path d="M43.0129 21.5007C43.0129 10.4773 33.7417 1.54102 22.3052 1.54102C10.8686 1.54102 1.59747 10.4773 1.59747 21.5007C1.59747 32.5241 10.8686 41.4603 22.3052 41.4603C33.7417 41.4603 43.0129 32.5241 43.0129 21.5007Z" fill="black" stroke="#FFB800" stroke-width="0.516949"/>
<path d="M13.8677 17.8185H9.62433V15.8708H20.2969V17.8185H16.0536V27.8223H13.8677V17.8185Z" fill="#FFB800"/>
<path d="M22.7699 26.2819C21.5453 25.1015 20.933 23.626 20.933 21.8554C20.933 20.0848 21.5575 18.6034 22.8067 17.4112C24.0435 16.2308 25.605 15.6406 27.4909 15.6406C28.7768 15.6406 29.934 15.9357 30.9627 16.5259C32.0036 17.1161 32.7874 17.9188 33.314 18.9339L31.1832 19.6953C30.8158 19.0579 30.3075 18.5621 29.6585 18.208C29.0094 17.8539 28.2869 17.6768 27.4909 17.6768C26.2908 17.6768 25.2743 18.0781 24.4416 18.8808C23.6211 19.6717 23.2108 20.6573 23.2108 21.8377C23.2108 23.0417 23.6027 24.0391 24.3864 24.83C25.1702 25.6208 26.1438 26.0163 27.3072 26.0163C28.2134 26.0163 29.04 25.7566 29.7871 25.2372C30.5096 24.7297 30.9933 24.0568 31.2382 23.2187H27.0867V21.2888H33.7181C33.7426 21.5957 33.7548 21.7905 33.7548 21.8731C33.7304 23.6437 33.1119 25.1133 31.8996 26.2819C30.6872 27.4623 29.1747 28.0525 27.3623 28.0525C25.5253 28.0525 23.9946 27.4623 22.7699 26.2819Z" fill="#FFB800"/>
</g>
<defs>
<clipPath id="clip0_65_37">
<rect width="159" height="43" fill="white"/>
</clipPath>
</defs>
</svg>
