<svg width="23" height="40" viewBox="0 0 23 40" fill="none" xmlns="http://www.w3.org/2000/svg">
<path d="M22.4568 21.2461L2.93897 39.5246C2.61331 39.8298 2.18064 40 1.73071 40C1.28078 40 0.84811 39.8298 0.522446 39.5246L0.501431 39.504C0.343008 39.3561 0.21686 39.178 0.130657 38.9806C0.0444546 38.7833 0 38.5708 0 38.356C0 38.1412 0.0444546 37.9287 0.130657 37.7313C0.21686 37.534 0.343008 37.3559 0.501431 37.208L18.881 19.9966L0.501431 2.79202C0.343008 2.6441 0.21686 2.46604 0.130657 2.26868C0.0444546 2.07133 0 1.8588 0 1.64402C0 1.42924 0.0444546 1.21672 0.130657 1.01936C0.21686 0.822002 0.343008 0.643948 0.501431 0.496021L0.522446 0.475365C0.84811 0.170223 1.28078 0 1.73071 0C2.18064 0 2.61331 0.170223 2.93897 0.475365L22.4568 18.7539C22.6285 18.9146 22.7651 19.108 22.8585 19.3222C22.9519 19.5364 23 19.767 23 20C23 20.233 22.9519 20.4636 22.8585 20.6778C22.7651 20.892 22.6285 21.0854 22.4568 21.2461Z" fill="black"/>
</svg>
